{"title":"Baby TV - Dieren op de boerderij - Hornigold TBS","uid":6012252,"size":4323630120,"categoryP":"video","categoryS":"tv_shows","magnet":"?xt=urn:btih:3ebfffdead2b5a349770e2472c6a9d9c9782f3a2&amp;dn=Baby+TV+-+Dieren+op+de+boerderij+-+Hornigold+TBS&amp;tr=udp%3A%2F%2Ftracker.openbittorrent.com%3A80&amp;tr=udp%3A%2F%2Fopen.demonii.com%3A1337&amp;tr=udp%3A%2F%2Ftracker.coppersurfer.tk%3A6969&amp;tr=udp%3A%2F%2Fexodus.desync.com%3A6969","seeders":2,"leechers":1,"uploader":"orangzeb","files":-1,"time":1291502765,"description":"Baby TV - Dieren op de boerderij\n\n******************************\n\nCategorie: Beeld\nFormaat: DVD5\nBron: Anders (einde van de filmpjes zijn helaas niet compleet)\nOndertitels: Geen\nGenre: Animatie, kinderen 0-4 jaar\n\nBabyTV presenteert een vrolijke serie voor baby's en peuters tot vier jaar. Elke dvd is een verzameling van korte BabyTV afleveringen over ÃƒÂ©ÃƒÂ©n bepaald thema. De onderwerpen zijn aangepast aan de ontwikkelingsbehoeften van de allerkleinsten en samengesteld door kinderpsychologen, pedagogen en ervaren programmamakers. Alle afleveringen zijn leerzaam en leuk! \n\nDieren op de boerderij\nBeleef een leuk avontuur op de boerderij! Ontmoet dieren, leer hun namen en luister naar hun geluiden. Deze dvd biedt je kind een leerzame ontmoeting met boerderijdieren.\n\nKleuren Leren\nReis met de schattige figuurtjes van BabyTV mee door een magische wereld. Met verhaaltjes en liedjes leert je kind spelenderwijs de kleuren kennen.\n\nLekker Slapen\nMaak je klaar voor de nacht, samen met je vriendjes van BabyTV . Op deze dvd is een mooie collectie slaapliedjes en bedtijdverhaaltjes samengebracht.\n\nSamen Spelen\nOntdek hoe het is om te helpen, te knuffelen, te delen, samen te werken en samen te spelen. Met deze dvd maakt je kind kennis met sociale vaardigheden.\n\nTaal: Nederlands, duur ongeveer 115 minuten.\n\n******************************\nVideo en Audio informatie:\n******************************\nVideo\nID                               : 224 (0xE0)\nFormat                           : MPEG Video\nFormat version                   : Version 2\nFormat profile                   : Main@Main\nFormat settings, BVOP            : Yes\nFormat settings, Matrix          : Default\nFormat settings, GOP             : M=3, N=12\nDuration                         : 27mn 1s\nBit rate mode                    : Variable\nBit rate                         : 5 000 Kbps\nNominal bit rate                 : 9 500 Kbps\nWidth                            : 720 pixels\nHeight                           : 576 pixels\nDisplay aspect ratio             : 4:3\nFrame rate                       : 25.000 fps\nStandard                         : PAL\nColor space                      : YUV\nChroma subsampling               : 4:2:0\nBit depth                        : 8 bits\nScan type                        : Interlaced\nScan order                       : Bottom Field First\nBits/(Pixel*Frame)               : 0.482\nStream size                      : 967 MiB (94%)\nWriting library                  : (c) 1998-2010 Womble Multimedia, Inc. / MPEG Video Wizard (01/2010) / Jan 17 2010\n\nAudio\nID                               : 128 (0x80)\nFormat                           : AC-3\nFormat/Info                      : Audio Coding 3\nMode extension                   : CM (complete main)\nDuration                         : 27mn 1s\nBit rate mode                    : Constant\nBit rate                         : 192 Kbps\nChannel(s)                       : 2 channels\nChannel positions                : Front: L R\nSampling rate                    : 48.0 KHz\nBit depth                        : 16 bits\nStream size                      : 37.1 MiB (4%)\n\n******************************\n\nHornigold TBS","torrent":{"xt":"urn:btih:3ebfffdead2b5a349770e2472c6a9d9c9782f3a2","amp;dn":"Baby+TV+-+Dieren+op+de+boerderij+-+Hornigold+TBS","amp;tr":["udp%3A%2F%2Ftracker.openbittorrent.com%3A80","udp%3A%2F%2Fopen.demonii.com%3A1337","udp%3A%2F%2Ftracker.coppersurfer.tk%3A6969","udp%3A%2F%2Fexodus.desync.com%3A6969"],"infoHash":"3ebfffdead2b5a349770e2472c6a9d9c9782f3a2","infoHashBuffer":{"type":"Buffer","data":[62,191,255,222,173,43,90,52,151,112,226,71,44,106,157,156,151,130,243,162]},"announce":[],"urlList":[]}}